<svg width="40" height="41" viewBox="0 0 40 41" fill="none" xmlns="http://www.w3.org/2000/svg">
<g filter="url(#filter0_d_349_2239)">
<rect x="6" y="5" width="12" height="12" rx="1" fill="#0077B5"/>
<path d="M12.3125 13.8125H11.0625V10.0625H12.3125V10.6875C12.5789 10.3485 12.983 10.1464 13.4141 10.1366C14.1892 10.1409 14.8148 10.7717 14.8125 11.5469V13.8125H13.5625V11.7031C13.5125 11.3539 13.2131 11.0949 12.8603 11.0956C12.706 11.1005 12.5604 11.1681 12.457 11.2827C12.3536 11.3973 12.3015 11.5492 12.3125 11.7031V13.8125ZM10.4375 13.8125H9.1875V10.0625H10.4375V13.8125ZM9.8125 9.4375C9.46732 9.4375 9.1875 9.15768 9.1875 8.8125C9.1875 8.46732 9.46732 8.1875 9.8125 8.1875C10.1577 8.1875 10.4375 8.46732 10.4375 8.8125C10.4375 8.97826 10.3717 9.13723 10.2544 9.25444C10.1372 9.37165 9.97826 9.4375 9.8125 9.4375Z" fill="white"/>
</g>
<defs>
<filter id="filter0_d_349_2239" x="0" y="0.5" width="24" height="24" filterUnits="userSpaceOnUse" color-interpolation-filters="sRGB">
<feFlood flood-opacity="0" result="BackgroundImageFix"/>
<feColorMatrix in="SourceAlpha" type="matrix" values="0 0 0 0 0 0 0 0 0 0 0 0 0 0 0 0 0 0 127 0" result="hardAlpha"/>
<feOffset dy="1.5"/>
<feGaussianBlur stdDeviation="3"/>
<feColorMatrix type="matrix" values="0 0 0 0 0 0 0 0 0 0 0 0 0 0 0 0 0 0 0.06 0"/>
<feBlend mode="normal" in2="BackgroundImageFix" result="effect1_dropShadow_349_2239"/>
<feBlend mode="normal" in="SourceGraphic" in2="effect1_dropShadow_349_2239" result="shape"/>
</filter>
</defs>
</svg>
